<mxfile host="app.diagrams.net" modified="2024-03-25T05:19:26.571Z" agent="Mozilla/5.0 (Windows NT 10.0; Win64; x64) AppleWebKit/537.36 (KHTML, like Gecko) Chrome/123.0.0.0 Safari/537.36" etag="gSwx5EKufZ7uQ7jbRSH0" version="22.1.21" type="github">
  <diagram name="第 1 页" id="I9-70KdEMlvTllBYdfW1">
    <mxGraphModel dx="1434" dy="771" grid="0" gridSize="10" guides="1" tooltips="1" connect="1" arrows="1" fold="1" page="0" pageScale="1" pageWidth="1169" pageHeight="827" math="0" shadow="0">
      <root>
        <mxCell id="0" />
        <mxCell id="1" parent="0" />
        <mxCell id="oUUrxRw8xBqe5NvQNEQg-11" value="" style="edgeStyle=orthogonalEdgeStyle;rounded=0;orthogonalLoop=1;jettySize=auto;html=1;shape=flexArrow;strokeColor=#5B9BD5;strokeWidth=2;" edge="1" parent="1" source="oUUrxRw8xBqe5NvQNEQg-1" target="oUUrxRw8xBqe5NvQNEQg-4">
          <mxGeometry relative="1" as="geometry" />
        </mxCell>
        <mxCell id="oUUrxRw8xBqe5NvQNEQg-30" style="edgeStyle=orthogonalEdgeStyle;rounded=0;orthogonalLoop=1;jettySize=auto;html=1;strokeWidth=2;strokeColor=#5B9BD5;" edge="1" parent="1" source="oUUrxRw8xBqe5NvQNEQg-1">
          <mxGeometry relative="1" as="geometry">
            <mxPoint x="587" y="236.5" as="targetPoint" />
          </mxGeometry>
        </mxCell>
        <mxCell id="oUUrxRw8xBqe5NvQNEQg-1" value="&lt;font style=&quot;font-size: 22px;&quot; face=&quot;Helvetica&quot;&gt;存在问题&lt;/font&gt;" style="rounded=1;whiteSpace=wrap;html=1;fillColor=#5b9bd5;strokeColor=#006EAF;fontColor=#ffffff;" vertex="1" parent="1">
          <mxGeometry x="285" y="209" width="103" height="55" as="geometry" />
        </mxCell>
        <mxCell id="oUUrxRw8xBqe5NvQNEQg-29" style="edgeStyle=orthogonalEdgeStyle;rounded=0;orthogonalLoop=1;jettySize=auto;html=1;strokeWidth=2;strokeColor=#5B9BD5;" edge="1" parent="1">
          <mxGeometry relative="1" as="geometry">
            <mxPoint x="735" y="368" as="targetPoint" />
            <mxPoint x="735" y="286" as="sourcePoint" />
          </mxGeometry>
        </mxCell>
        <mxCell id="oUUrxRw8xBqe5NvQNEQg-3" value="&lt;div style=&quot;text-align: left;&quot;&gt;&lt;span style=&quot;font-size: 22px; background-color: initial;&quot;&gt;（1）异常样本稀缺&lt;/span&gt;&lt;/div&gt;&lt;font style=&quot;font-size: 22px;&quot; face=&quot;Helvetica&quot;&gt;&lt;div style=&quot;text-align: left;&quot;&gt;&lt;span style=&quot;background-color: initial;&quot;&gt;（2）异常数据被准确重构&lt;/span&gt;&lt;/div&gt;&lt;div style=&quot;text-align: left;&quot;&gt;&lt;span style=&quot;background-color: initial;&quot;&gt;（3）潜在特征差异微妙&lt;/span&gt;&lt;/div&gt;&lt;/font&gt;" style="rounded=0;whiteSpace=wrap;html=1;fillColor=#5b9bd5;strokeColor=#006EAF;fontColor=#ffffff;" vertex="1" parent="1">
          <mxGeometry x="590" y="185" width="268" height="99" as="geometry" />
        </mxCell>
        <mxCell id="oUUrxRw8xBqe5NvQNEQg-12" style="edgeStyle=orthogonalEdgeStyle;rounded=0;orthogonalLoop=1;jettySize=auto;html=1;shape=flexArrow;strokeColor=#5B9BD5;strokeWidth=2;" edge="1" parent="1" source="oUUrxRw8xBqe5NvQNEQg-4">
          <mxGeometry relative="1" as="geometry">
            <mxPoint x="336.5" y="507" as="targetPoint" />
          </mxGeometry>
        </mxCell>
        <mxCell id="oUUrxRw8xBqe5NvQNEQg-31" style="edgeStyle=orthogonalEdgeStyle;rounded=0;orthogonalLoop=1;jettySize=auto;html=1;strokeColor=#5B9BD5;strokeWidth=2;" edge="1" parent="1" source="oUUrxRw8xBqe5NvQNEQg-4">
          <mxGeometry relative="1" as="geometry">
            <mxPoint x="539" y="399.5" as="targetPoint" />
          </mxGeometry>
        </mxCell>
        <mxCell id="oUUrxRw8xBqe5NvQNEQg-4" value="&lt;font style=&quot;font-size: 22px;&quot; face=&quot;Helvetica&quot;&gt;研究内容&lt;/font&gt;" style="rounded=1;whiteSpace=wrap;html=1;fillColor=#5b9bd5;strokeColor=#006EAF;fontColor=#ffffff;" vertex="1" parent="1">
          <mxGeometry x="285" y="372" width="103" height="55" as="geometry" />
        </mxCell>
        <mxCell id="oUUrxRw8xBqe5NvQNEQg-13" value="" style="edgeStyle=orthogonalEdgeStyle;rounded=0;orthogonalLoop=1;jettySize=auto;html=1;shape=flexArrow;strokeColor=#5B9BD5;strokeWidth=2;" edge="1" parent="1" source="oUUrxRw8xBqe5NvQNEQg-5" target="oUUrxRw8xBqe5NvQNEQg-6">
          <mxGeometry relative="1" as="geometry" />
        </mxCell>
        <mxCell id="oUUrxRw8xBqe5NvQNEQg-20" style="edgeStyle=orthogonalEdgeStyle;rounded=0;orthogonalLoop=1;jettySize=auto;html=1;strokeColor=#5B9BD5;strokeWidth=2;" edge="1" parent="1" source="oUUrxRw8xBqe5NvQNEQg-5">
          <mxGeometry relative="1" as="geometry">
            <mxPoint x="474" y="537.5" as="targetPoint" />
          </mxGeometry>
        </mxCell>
        <mxCell id="oUUrxRw8xBqe5NvQNEQg-5" value="&lt;font style=&quot;font-size: 22px;&quot; face=&quot;Helvetica&quot;&gt;研究方法&lt;/font&gt;" style="rounded=1;whiteSpace=wrap;html=1;fillColor=#5b9bd5;strokeColor=#006EAF;fontColor=#ffffff;" vertex="1" parent="1">
          <mxGeometry x="285" y="510" width="103" height="55" as="geometry" />
        </mxCell>
        <mxCell id="oUUrxRw8xBqe5NvQNEQg-28" style="edgeStyle=orthogonalEdgeStyle;rounded=0;orthogonalLoop=1;jettySize=auto;html=1;strokeColor=#5B9BD5;strokeWidth=2;" edge="1" parent="1">
          <mxGeometry relative="1" as="geometry">
            <mxPoint x="572" y="680.5" as="targetPoint" />
            <mxPoint x="391" y="680.5" as="sourcePoint" />
          </mxGeometry>
        </mxCell>
        <mxCell id="oUUrxRw8xBqe5NvQNEQg-6" value="&lt;font style=&quot;font-size: 22px;&quot; face=&quot;Helvetica&quot;&gt;研究目标&lt;/font&gt;" style="rounded=1;whiteSpace=wrap;html=1;fillColor=#5b9bd5;strokeColor=#006EAF;fontColor=#ffffff;" vertex="1" parent="1">
          <mxGeometry x="285" y="652" width="103" height="55" as="geometry" />
        </mxCell>
        <mxCell id="oUUrxRw8xBqe5NvQNEQg-25" style="edgeStyle=orthogonalEdgeStyle;rounded=0;orthogonalLoop=1;jettySize=auto;html=1;strokeColor=#5B9BD5;strokeWidth=2;" edge="1" parent="1">
          <mxGeometry relative="1" as="geometry">
            <mxPoint x="736" y="461" as="targetPoint" />
            <mxPoint x="736" y="430" as="sourcePoint" />
          </mxGeometry>
        </mxCell>
        <mxCell id="oUUrxRw8xBqe5NvQNEQg-7" value="&lt;div style=&quot;text-align: left;&quot;&gt;&lt;span style=&quot;font-size: 22px;&quot;&gt;基于图像重构进行异常检测算法研究&lt;/span&gt;&lt;/div&gt;" style="rounded=0;whiteSpace=wrap;html=1;fillColor=#5b9bd5;strokeColor=#006EAF;fontColor=#ffffff;" vertex="1" parent="1">
          <mxGeometry x="544.5" y="372" width="377" height="55" as="geometry" />
        </mxCell>
        <mxCell id="oUUrxRw8xBqe5NvQNEQg-8" value="&lt;div style=&quot;text-align: left;&quot;&gt;&lt;span style=&quot;font-size: 22px;&quot;&gt;生产对抗网络+自编码器&lt;/span&gt;&lt;/div&gt;" style="rounded=0;whiteSpace=wrap;html=1;fillColor=#5b9bd5;strokeColor=#006EAF;fontColor=#ffffff;" vertex="1" parent="1">
          <mxGeometry x="475.5" y="510" width="244.5" height="55" as="geometry" />
        </mxCell>
        <mxCell id="oUUrxRw8xBqe5NvQNEQg-9" value="&lt;div style=&quot;text-align: left;&quot;&gt;&lt;span style=&quot;font-size: 22px;&quot;&gt;（1）提高模型的异常检测性能&lt;/span&gt;&lt;/div&gt;&lt;div style=&quot;text-align: left;&quot;&gt;&lt;span style=&quot;font-size: 22px;&quot;&gt;（2）实现工业图像异常检测系统&lt;/span&gt;&lt;/div&gt;" style="rounded=0;whiteSpace=wrap;html=1;fillColor=#5b9bd5;strokeColor=#006EAF;fontColor=#ffffff;" vertex="1" parent="1">
          <mxGeometry x="575.25" y="652" width="349.5" height="61" as="geometry" />
        </mxCell>
        <mxCell id="oUUrxRw8xBqe5NvQNEQg-22" value="&lt;div style=&quot;text-align: left;&quot;&gt;&lt;span style=&quot;font-size: 22px;&quot;&gt;局部关键特征&lt;/span&gt;&lt;/div&gt;" style="rounded=0;whiteSpace=wrap;html=1;fillColor=#5b9bd5;strokeColor=#006EAF;fontColor=#ffffff;" vertex="1" parent="1">
          <mxGeometry x="734" y="510" width="155" height="55" as="geometry" />
        </mxCell>
        <mxCell id="oUUrxRw8xBqe5NvQNEQg-23" value="&lt;div style=&quot;text-align: left;&quot;&gt;&lt;span style=&quot;font-size: 22px;&quot;&gt;潜在特征&lt;/span&gt;&lt;/div&gt;" style="rounded=0;whiteSpace=wrap;html=1;fillColor=#5b9bd5;strokeColor=#006EAF;fontColor=#ffffff;" vertex="1" parent="1">
          <mxGeometry x="903" y="510" width="105" height="55" as="geometry" />
        </mxCell>
        <mxCell id="oUUrxRw8xBqe5NvQNEQg-24" value="" style="shape=curlyBracket;whiteSpace=wrap;html=1;rounded=1;flipH=1;labelPosition=right;verticalLabelPosition=middle;align=left;verticalAlign=middle;size=0.2727272727272727;rotation=-90;strokeColor=#5B9BD5;strokeWidth=2;" vertex="1" parent="1">
          <mxGeometry x="722" y="227" width="29" height="515" as="geometry" />
        </mxCell>
        <mxCell id="oUUrxRw8xBqe5NvQNEQg-27" style="edgeStyle=orthogonalEdgeStyle;rounded=0;orthogonalLoop=1;jettySize=auto;html=1;strokeColor=#5B9BD5;strokeWidth=2;" edge="1" parent="1">
          <mxGeometry relative="1" as="geometry">
            <mxPoint x="738.5" y="650" as="targetPoint" />
            <mxPoint x="738.5" y="608" as="sourcePoint" />
          </mxGeometry>
        </mxCell>
        <mxCell id="oUUrxRw8xBqe5NvQNEQg-26" value="" style="shape=curlyBracket;whiteSpace=wrap;html=1;rounded=1;flipH=1;labelPosition=right;verticalLabelPosition=middle;align=left;verticalAlign=middle;size=0.2727272727272727;rotation=90;strokeColor=#5B9BD5;strokeWidth=2;" vertex="1" parent="1">
          <mxGeometry x="724" y="334" width="29" height="515" as="geometry" />
        </mxCell>
      </root>
    </mxGraphModel>
  </diagram>
</mxfile>
